<svg xmlns="http://www.w3.org/2000/svg" viewBox="0 0 16 14" fill="none">
  <path d="M10.2399 9.42004L13.3598 12.5374L11.8959 14.0001L8.77602 10.8827C8.50853 10.6155 8.15594 10.4697 7.77659 10.4697C7.39725 10.4697 7.04465 10.6155 6.77717 10.8827L3.6573 14.0001L2.19342 12.5374L5.31329 9.42004H10.2375H10.2399Z" fill="currentColor"/>
  <path d="M10.7602 8.521L15.0206 9.66053L15.5555 7.66088L11.2952 6.52135C10.9305 6.42416 10.6265 6.19091 10.4368 5.86289C10.2471 5.53731 10.1985 5.15585 10.2958 4.79139L11.4362 0.534537L9.43496 0L8.29449 4.25686L10.7578 8.51857L10.7602 8.521Z" fill="currentColor"/>
  <path d="M4.7953 8.521L0.534973 9.66053L0 7.66088L4.26033 6.52135C4.62509 6.42416 4.92905 6.19091 5.11872 5.86289C5.30839 5.53731 5.35703 5.15585 5.25976 4.79139L4.11929 0.534537L6.12058 0L7.26104 4.25686L4.79774 8.51857L4.7953 8.521Z" fill="currentColor"/>
</svg>