<svg width="16" height="16" viewBox="0 0 16 16" fill="none" xmlns="http://www.w3.org/2000/svg">
<path fill-rule="evenodd" clip-rule="evenodd" d="M12.4257 4.63482C12.7186 4.34193 12.7186 3.86706 12.4257 3.57416C12.1328 3.28127 11.658 3.28127 11.3651 3.57416L8 6.93923L4.63492 3.57416C4.34203 3.28127 3.86716 3.28127 3.57426 3.57416C3.28137 3.86706 3.28137 4.34193 3.57426 4.63482L6.93934 7.99989L3.57416 11.3651C3.28127 11.6579 3.28127 12.1328 3.57416 12.4257C3.86705 12.7186 4.34193 12.7186 4.63482 12.4257L8 9.06055L11.3652 12.4257C11.6581 12.7186 12.1329 12.7186 12.4258 12.4257C12.7187 12.1328 12.7187 11.6579 12.4258 11.3651L9.06066 7.99989L12.4257 4.63482Z" fill="currentColor"/>
</svg>
