<svg xmlns="http://www.w3.org/2000/svg" width="16" height="16" viewBox="0 0 16 16" fill="none">
  <path d="M13.9062 4.0625H2.65625C2.50707 4.0625 2.36399 4.00324 2.2585 3.89775C2.15301 3.79226 2.09375 3.64918 2.09375 3.5C2.09375 3.35082 2.15301 3.20774 2.2585 3.10225C2.36399 2.99676 2.50707 2.9375 2.65625 2.9375H12.2188C12.3679 2.9375 12.511 2.87824 12.6165 2.77275C12.722 2.66726 12.7812 2.52418 12.7812 2.375C12.7812 2.22582 12.722 2.08274 12.6165 1.97725C12.511 1.87176 12.3679 1.8125 12.2188 1.8125H2.65625C2.2087 1.8125 1.77947 1.99029 1.46301 2.30676C1.14654 2.62322 0.96875 3.05245 0.96875 3.5V12.5C0.96875 12.9476 1.14654 13.3768 1.46301 13.6932C1.77947 14.0097 2.2087 14.1875 2.65625 14.1875H13.9062C14.2046 14.1875 14.4908 14.069 14.7017 13.858C14.9127 13.647 15.0312 13.3609 15.0312 13.0625V5.1875C15.0312 4.88913 14.9127 4.60298 14.7017 4.392C14.4908 4.18103 14.2046 4.0625 13.9062 4.0625ZM11.375 9.6875C11.2081 9.6875 11.045 9.63801 10.9062 9.5453C10.7675 9.45259 10.6593 9.32081 10.5955 9.16664C10.5316 9.01246 10.5149 8.84281 10.5475 8.67914C10.58 8.51547 10.6604 8.36513 10.7784 8.24713C10.8964 8.12913 11.0467 8.04877 11.2104 8.01621C11.3741 7.98366 11.5437 8.00037 11.6979 8.06423C11.8521 8.12809 11.9838 8.23623 12.0766 8.37499C12.1693 8.51374 12.2188 8.67687 12.2188 8.84375C12.2188 9.06753 12.1299 9.28214 11.9716 9.44037C11.8134 9.5986 11.5988 9.6875 11.375 9.6875Z" fill="currentColor"/>
</svg>