<svg viewBox="0 0 14 12" fill="none" xmlns="http://www.w3.org/2000/svg">
  <path d="M1.25 5.24988C0.835786 5.24988 0.5 5.58567 0.5 5.99988C0.5 6.4141 0.835786 6.74988 1.25 6.74988L10.9393 6.74988L7.65901 9.93937C7.36612 10.2323 7.36612 10.7071 7.65901 11C7.9519 11.2929 8.42678 11.2929 8.71967 11L13.2803 6.53021C13.421 6.38956 13.5 6.19879 13.5 5.99988C13.5 5.80097 13.421 5.6102 13.2803 5.46955L8.71967 0.999977C8.42678 0.707083 7.9519 0.707083 7.65901 0.999977C7.36611 1.29287 7.36611 1.76774 7.65901 2.06064L10.9393 5.24988L1.25 5.24988Z" fill="currentColor"/>
</svg>
