<svg viewBox="0 0 17 19" fill="none" xmlns="http://www.w3.org/2000/svg">
<path d="M9.47584 2.04221C9.83334 1.6973 9.8424 1.12907 9.49606 0.773039C9.14973 0.417004 8.57915 0.407987 8.22165 0.752898L5.52417 3.35535C5.34893 3.52442 5.25001 3.75703 5.25001 4.00001C5.25001 4.243 5.34893 4.4756 5.52417 4.64467L8.22165 7.2471C8.57916 7.59201 9.14973 7.58299 9.49607 7.22696C9.8424 6.87092 9.83334 6.30269 9.47584 5.95778L8.29323 4.81685C9.35042 4.73875 10.4138 4.93285 11.38 5.38548C12.5356 5.92678 13.496 6.81145 14.1301 7.91877C14.7643 9.02608 15.0414 10.3021 14.9235 11.5727C14.8056 12.8433 14.2986 14.0466 13.4715 15.0184C12.6445 15.9901 11.5378 16.683 10.3024 17.0025C9.06695 17.322 7.76304 17.2525 6.56858 16.8036C5.37412 16.3546 4.34728 15.548 3.62819 14.4939C2.9091 13.4397 2.53279 12.1894 2.5506 10.9134C2.55754 10.4164 2.16027 10.0079 1.66326 10.001C1.16625 9.99402 0.75772 10.3913 0.75078 10.8883C0.727791 12.5347 1.21336 14.148 2.14121 15.5082C3.06907 16.8684 4.39402 17.9092 5.93527 18.4885C7.47651 19.0678 9.15896 19.1574 10.753 18.7452C12.3471 18.3329 13.7752 17.4389 14.8423 16.185C15.9094 14.9311 16.5637 13.3785 16.7158 11.739C16.8679 10.0995 16.5104 8.45301 15.6921 7.02421C14.8738 5.59542 13.6346 4.45391 12.1436 3.75546C10.9936 3.21675 9.73695 2.96184 8.4783 3.00461L9.47584 2.04221Z" fill="currentColor"/>
</svg>
